<svg xmlns="http://www.w3.org/2000/svg" width="400" height="129" viewBox="0 0 400 129">
<g>
<path d="M 131.87 90.58 C130.13,91.66 127.00,91.86 127.00,90.89 C127.00,89.19 129.93,84.14 131.41,83.30 C132.62,82.61 132.63,81.94 131.43,78.50 C130.61,76.16 130.02,70.50 130.02,64.87 L 130.00 55.23 L 132.75 54.69 C134.26,54.40 135.85,54.49 136.28,54.91 C136.71,55.32 136.93,61.70 136.78,69.08 C136.57,79.10 136.19,82.44 135.26,82.25 C134.52,82.11 133.77,83.62 133.38,86.03 C133.03,88.24 132.35,90.28 131.87,90.58 ZM 267.79 76.15 C264.10,78.49 263.00,75.76 263.00,64.23 L 263.00 53.87 L 268.50 54.50 L 268.79 64.92 C269.00,72.58 268.73,75.55 267.79,76.15 ZM 95.15 38.44 C95.23,39.02 95.49,38.21 95.73,36.63 C95.96,35.05 95.89,32.71 95.57,31.43 L 95.44 30.91 C96.11,32.03 96.08,34.45 95.75,38.56 C95.18,45.63 96.05,47.31 99.60,45.96 C101.81,45.12 105.39,45.17 108.77,45.85 C106.75,45.79 105.97,46.13 106.43,46.89 C106.74,47.39 103.99,47.72 100.24,47.64 L 93.50 47.49 L 93.19 43.23 L 92.88 38.96 L 88.46 39.29 C85.97,39.48 83.85,39.16 83.60,38.56 C83.57,38.48 83.53,38.57 83.50,38.80 L 83.50 35.99 C84.13,36.82 86.72,37.34 90.66,37.36 C93.05,37.37 95.07,37.85 95.15,38.44 ZM 155.99 76.03 C153.46,77.63 152.11,77.12 150.48,73.96 C149.46,71.99 149.01,68.99 149.20,65.50 L 149.50 60.09 L 152.74 61.66 C155.79,63.15 156.51,65.52 153.56,64.38 C152.74,64.07 151.90,64.73 151.49,66.03 C150.97,67.68 151.60,69.02 154.14,71.64 C156.91,74.50 157.22,75.25 155.99,76.03 ZM 83.50 74.65 C83.78,75.58 84.23,75.41 84.93,75.04 C87.45,73.69 87.56,73.71 89.52,75.66 C90.76,76.90 91.37,77.02 91.93,76.11 C92.49,75.21 93.00,75.29 93.96,76.45 C94.67,77.30 96.65,78.01 98.37,78.02 C100.09,78.02 102.10,78.41 102.83,78.88 C106.87,81.43 94.02,80.94 89.05,78.34 C86.09,76.80 84.23,76.55 83.50,77.61 L 83.50 74.65 ZM 181.00 61.08 L 181.00 65.00 L 170.25 64.82 C160.30,64.66 160.02,64.60 166.48,64.07 C172.63,63.57 173.60,63.21 174.71,61.00 C175.63,59.17 175.97,58.97 175.99,60.25 C175.99,61.21 176.67,62.00 177.48,62.00 C179.11,62.00 180.58,57.74 179.54,56.06 C178.54,54.44 176.00,54.80 176.00,56.56 C176.00,57.42 175.57,57.85 175.04,57.53 C173.38,56.50 175.12,54.00 177.50,54.00 C180.17,54.00 181.00,55.68 181.00,61.08 ZM 40.00 75.01 C38.66,77.51 37.77,77.51 35.53,75.04 C34.28,73.66 33.94,72.24 34.39,70.29 C34.75,68.75 35.18,66.85 35.36,66.05 C35.81,64.00 38.00,63.51 38.00,65.47 C38.00,66.36 38.69,68.43 39.53,70.06 C40.68,72.28 40.80,73.51 40.00,75.01 ZM 191.25 67.30 C195.08,68.06 196.49,67.56 196.81,65.35 C197.07,63.53 196.53,63.16 193.06,62.83 C189.80,62.52 189.12,62.64 189.02,64.09 C189.01,63.62 189.01,63.13 189.01,62.63 C189.00,60.27 189.01,58.61 189.12,57.34 C189.69,59.75 192.23,61.68 194.57,61.23 C197.36,60.70 198.96,62.15 198.98,65.22 C199.00,67.14 194.24,70.00 191.03,70.00 C190.14,70.00 189.65,70.11 189.45,70.53 C189.23,68.96 189.10,67.21 189.04,65.24 C189.22,66.37 189.94,67.05 191.25,67.30 ZM 242.25 52.61 C239.58,54.64 237.10,54.27 236.50,51.75 C235.78,48.76 236.33,39.82 237.33,38.25 C238.27,36.76 241.00,36.57 241.00,38.00 C241.00,38.55 240.32,39.00 239.50,39.00 C238.31,39.00 238.00,40.44 238.00,46.00 C238.00,53.26 238.39,53.90 241.44,51.67 C242.92,50.59 243.05,49.96 242.13,48.24 C240.47,45.15 240.82,43.06 242.50,46.00 C244.41,49.34 244.35,51.02 242.25,52.61 ZM 76.39 55.80 C75.94,55.60 75.19,55.61 74.01,55.78 C68.98,56.52 65.95,55.31 66.43,52.73 C66.66,51.50 66.88,50.01 66.93,49.42 C66.97,48.82 67.66,48.33 68.48,48.33 C69.52,48.33 69.78,49.01 69.37,50.66 C68.69,53.38 71.22,54.90 73.41,53.08 C75.33,51.48 76.24,45.76 75.06,42.67 L 74.08 40.09 L 75.22 42.80 C75.82,44.23 76.33,49.98 76.39,55.80 ZM 76.30 61.33 C76.09,61.11 75.73,61.10 75.20,61.20 C74.24,61.38 73.45,62.52 73.39,63.78 C73.32,65.03 72.49,66.91 71.54,67.96 C70.58,69.01 70.05,70.27 70.35,70.76 C70.65,71.25 70.02,72.40 68.94,73.32 C66.55,75.36 65.32,75.53 66.93,73.59 C67.73,72.62 67.77,71.97 67.05,71.53 C66.47,71.17 66.01,69.90 66.02,68.69 C66.03,67.18 66.28,66.90 66.85,67.78 C68.32,70.11 70.99,67.94 71.64,63.88 C72.12,60.87 72.80,59.84 74.63,59.38 C75.34,59.20 75.96,58.84 76.39,58.39 C76.37,59.42 76.35,60.39 76.30,61.33 ZM 244.84 79.33 C245.76,79.57 244.79,79.82 242.69,79.88 C240.38,79.95 239.13,79.61 239.50,79.00 C239.84,78.45 239.51,78.00 238.77,78.00 C238.04,78.00 236.67,76.71 235.74,75.13 C234.14,72.42 234.14,72.18 235.85,70.63 C237.88,68.80 241.00,68.45 241.00,70.06 C241.00,70.64 240.59,70.86 240.08,70.55 C239.13,69.96 236.00,72.54 236.00,73.91 C236.00,74.33 237.15,75.20 238.56,75.85 C239.97,76.49 240.87,76.59 240.55,76.08 C240.23,75.56 240.41,74.86 240.95,74.53 C241.50,74.19 242.22,75.04 242.57,76.40 C242.91,77.77 243.93,79.09 244.84,79.33 ZM 289.96 60.07 C287.60,64.48 283.73,60.41 282.40,52.10 C281.85,48.68 282.02,48.00 283.41,48.00 C284.72,48.00 284.86,48.39 284.08,49.86 C282.55,52.72 284.59,59.00 287.05,59.00 C288.55,59.00 289.00,58.31 289.00,56.00 C289.00,54.35 289.45,53.00 290.00,53.00 C291.31,53.00 291.29,57.60 289.96,60.07 ZM 305.30 51.73 C304.20,56.24 304.84,57.02 307.43,54.43 C309.85,52.01 312.46,53.03 312.73,56.51 C312.95,59.24 312.89,59.31 312.02,57.25 C310.90,54.62 308.49,54.29 307.58,56.64 C306.84,58.59 306.87,58.62 310.04,59.89 C312.22,60.76 312.26,60.88 310.45,60.94 C309.32,60.97 307.79,61.56 307.05,62.25 C305.96,63.27 305.81,63.19 306.28,61.85 C306.60,60.94 306.28,59.39 305.56,58.41 C304.39,56.81 304.09,57.20 302.72,62.06 C301.87,65.05 300.88,68.96 300.51,70.75 C300.01,73.19 299.43,74.26 298.71,73.88 C299.52,72.98 301.34,67.40 303.15,60.25 L 305.30 51.73 ZM 358.00 63.50 C358.00,64.74 356.39,64.97 348.75,64.82 C343.35,64.71 341.58,64.49 344.50,64.28 C347.25,64.08 349.98,63.29 350.57,62.52 C351.15,61.75 352.50,61.29 353.57,61.48 C354.63,61.68 356.06,61.88 356.75,61.92 C357.44,61.97 358.00,62.67 358.00,63.50 ZM 328.88 68.09 C326.05,69.89 324.54,68.18 325.17,63.90 C325.67,60.52 327.34,60.62 328.89,64.11 C330.06,66.75 330.06,67.35 328.88,68.09 ZM 204.10 45.34 C207.36,44.84 211.05,44.95 215.25,45.64 C216.97,45.93 217.90,46.12 218.41,46.66 C217.87,46.10 216.84,45.91 214.87,45.59 C210.05,44.82 208.67,45.51 212.10,46.98 C214.03,47.81 213.64,47.89 210.10,47.39 C205.99,46.81 205.74,46.91 206.26,48.89 C206.56,50.05 206.40,51.00 205.91,51.00 C205.41,51.00 205.00,49.64 205.00,47.98 C205.00,46.13 204.91,45.43 204.10,45.34 ZM 52.87 78.96 C53.87,79.51 53.59,79.83 51.87,80.12 C48.03,80.76 43.85,79.96 44.27,78.68 C44.69,77.43 50.46,77.62 52.87,78.96 ZM 350.00 79.50 C350.00,81.15 345.45,81.57 343.17,80.12 C342.10,79.45 342.17,79.15 343.50,78.64 C346.54,77.47 350.00,77.93 350.00,79.50 ZM 154.68 56.40 C154.34,57.28 153.19,58.00 152.12,58.00 C150.67,58.00 150.32,57.49 150.71,55.98 C151.38,53.44 152.23,52.91 153.94,53.97 C154.68,54.42 155.01,55.52 154.68,56.40 ZM 35.67 74.33 C37.16,75.82 39.00,74.86 39.00,72.59 C39.00,70.68 38.59,70.29 37.00,70.71 C35.03,71.23 34.36,73.03 35.67,74.33 ZM 212.46 80.07 C211.70,81.30 207.28,81.27 206.52,80.03 C205.80,78.86 210.44,77.53 211.96,78.47 C212.55,78.84 212.77,79.56 212.46,80.07 ZM 86.00 51.94 C86.00,54.17 85.85,56.00 85.67,56.00 C83.88,56.00 83.31,49.55 85.00,48.50 C85.60,48.13 86.00,49.49 86.00,51.94 ZM 309.00 67.58 C309.00,68.26 306.39,68.06 305.67,67.33 C304.49,66.15 304.96,64.00 306.39,64.00 C307.56,64.00 309.00,65.98 309.00,67.58 ZM 94.98 68.75 C94.98,70.26 94.53,72.18 94.00,73.00 C93.29,74.10 93.03,73.36 93.02,70.25 C93.01,67.91 93.45,66.00 94.00,66.00 C94.55,66.00 94.99,67.24 94.98,68.75 ZM 129.00 89.08 C129.00,90.32 129.50,90.75 130.50,90.36 C131.32,90.05 132.00,88.95 132.00,87.92 C132.00,86.68 131.50,86.25 130.50,86.64 C129.68,86.95 129.00,88.05 129.00,89.08 ZM 95.00 60.56 C95.00,61.90 94.55,63.00 94.00,63.00 C93.45,63.00 93.00,61.62 93.00,59.94 C93.00,58.16 93.42,57.14 94.00,57.50 C94.55,57.84 95.00,59.22 95.00,60.56 ZM 110.82 49.75 C110.58,50.98 109.45,51.54 106.99,51.64 C104.37,51.75 104.19,51.67 106.25,51.32 C107.76,51.07 109.00,50.22 109.00,49.43 C109.00,48.65 109.48,48.00 110.07,48.00 C110.66,48.00 111.00,48.79 110.82,49.75 ZM 152.46 73.93 C153.27,75.25 155.00,75.34 155.00,74.06 C155.00,72.88 153.05,71.62 152.33,72.33 C152.04,72.63 152.10,73.35 152.46,73.93 ZM 67.44 80.22 C71.16,77.73 73.83,73.98 75.33,69.13 C74.23,73.75 72.20,76.74 68.87,79.26 C68.42,79.60 67.94,79.92 67.44,80.22 ZM 115.96 80.83 C119.03,78.98 121.17,73.81 121.88,68.13 C121.38,74.27 119.28,78.82 115.96,80.83 ZM 40.02 81.92 C43.62,83.55 49.63,84.26 55.15,83.89 C49.76,84.41 44.17,83.81 40.02,81.92 ZM 83.50 81.23 C83.98,82.36 85.17,82.76 88.85,83.42 L 83.50 82.49 L 83.50 81.23 ZM 83.50 35.14 L 83.50 34.54 L 87.73 32.51 C85.77,33.50 84.14,34.46 83.72,34.88 C83.63,34.97 83.56,35.06 83.50,35.14 ZM 201.32 83.64 C198.52,82.86 196.30,81.93 194.57,80.66 C196.30,81.84 198.55,82.77 201.50,83.63 C205.17,84.70 212.98,84.57 217.25,83.36 C212.99,84.56 205.16,84.70 201.32,83.64 ZM 119.38 52.64 C118.24,50.96 116.62,49.32 114.96,48.08 C115.24,48.25 115.49,48.43 115.73,48.61 C117.24,49.76 118.44,51.07 119.38,52.64 ZM 296.82 70.46 C296.03,68.28 295.11,65.06 294.03,60.75 C295.01,64.65 296.00,68.07 296.82,70.46 ZM 195.34 48.81 C196.50,47.98 197.74,47.29 199.06,46.74 C197.79,47.31 196.52,48.02 195.34,48.81 ZM 306.62 46.50 L 305.61 50.50 L 306.61 46.50 L 306.62 46.50 Z" fill="rgba(1,1,1,1)"/>
<path d="M 229.73 52.01 C229.43,52.00 229.09,52.00 228.71,52.00 C226.41,52.00 224.84,51.50 224.09,50.55 C223.57,49.89 223.44,49.03 223.72,47.97 C224.06,46.67 225.30,46.02 227.85,45.80 C230.83,45.56 231.46,45.13 231.26,43.50 C231.13,42.40 231.27,39.88 231.57,37.91 C232.07,34.66 232.65,34.10 237.61,32.04 C240.63,30.79 243.40,30.07 243.77,30.43 C244.13,30.80 244.54,33.89 244.66,37.30 C244.79,40.71 244.92,44.06 244.95,44.75 C244.98,45.58 246.69,46.00 250.00,46.00 C254.04,46.00 255.67,46.80 254.87,48.36 C254.60,48.89 254.06,49.49 253.25,50.18 C253.23,50.20 253.22,50.21 253.20,50.23 ZM 262.08 50.67 C265.73,48.10 271.16,45.77 271.89,46.56 C272.37,47.08 272.53,54.59 272.25,63.25 L 271.73 79.00 L 268.42 81.05 C267.72,81.48 267.08,81.86 266.50,82.18 C267.08,81.68 267.78,81.00 268.46,80.26 C270.94,77.58 271.00,77.18 271.00,62.82 C271.00,53.97 270.60,47.87 269.99,47.49 C269.43,47.15 267.07,47.92 264.74,49.20 L 262.08 50.67 ZM 244.91 71.71 C244.83,71.29 244.58,71.00 244.25,71.00 C243.79,71.00 243.30,69.31 243.16,67.25 C243.02,65.19 242.52,63.12 242.04,62.64 C241.62,62.22 239.58,62.81 237.16,64.00 C240.32,62.33 243.33,61.00 243.96,61.00 C244.75,61.00 245.09,63.03 244.99,67.25 C244.95,68.84 244.93,70.41 244.91,71.71 ZM 231.36 60.49 C231.28,60.30 231.23,60.03 231.19,59.70 L 234.55 59.33 C236.44,59.12 240.50,57.48 244.45,55.51 C238.93,58.66 232.81,62.00 232.33,62.00 C232.11,62.00 231.68,61.32 231.36,60.49 ZM 260.63 80.17 C259.78,75.02 259.79,62.47 260.38,55.71 L 260.19 62.52 C260.02,68.56 260.16,75.82 260.50,78.65 C260.68,80.11 260.85,81.18 261.06,81.93 C260.88,81.45 260.74,80.87 260.63,80.17 ZM 248.98 76.61 C247.24,76.34 246.16,76.02 245.54,75.47 C246.26,75.94 247.54,76.38 248.98,76.61 ZM 264.32 83.21 C263.70,83.43 263.18,83.53 262.74,83.49 C262.76,83.49 262.79,83.48 262.81,83.48 C263.31,83.38 263.86,83.28 264.32,83.21 ZM 244.91 74.35 C244.80,73.84 244.81,73.21 244.91,72.41 C244.90,73.24 244.90,73.92 244.91,74.35 ZM 234.48 65.43 L 230.80 67.43 L 230.79 67.39 L 234.48 65.43 ZM 231.40 55.87 L 231.22 57.01 C231.27,56.50 231.34,55.99 231.44,55.49 C231.50,55.14 231.56,54.83 231.61,54.54 C231.56,54.92 231.49,55.37 231.40,55.87 Z" fill="rgba(13,13,13,1)"/>
<path d="M 107.79 45.86 C106.48,45.93 106.08,46.31 106.51,47.02 C106.86,47.58 107.47,47.83 107.87,47.58 C108.54,47.16 109.36,47.43 109.96,48.01 C109.42,48.09 109.00,48.70 109.00,49.43 C109.00,50.22 107.76,51.07 106.25,51.32 C105.46,51.46 105.00,51.55 104.88,51.61 C104.37,51.56 103.80,51.51 103.19,51.45 C97.52,50.89 96.08,51.06 94.68,52.46 C92.80,54.35 92.49,56.57 94.00,57.50 C93.42,57.14 93.00,58.16 93.00,59.94 C93.00,61.62 93.45,63.00 94.00,63.00 C93.45,63.00 93.00,63.67 93.00,64.50 C93.00,65.32 93.45,66.00 94.00,66.00 C94.57,66.00 94.89,66.87 94.96,68.05 C94.85,66.88 94.46,66.00 94.00,66.00 C93.45,66.00 93.01,67.91 93.02,70.25 C93.03,73.35 93.29,74.09 93.99,73.01 C93.97,73.05 93.95,73.09 93.93,73.13 C93.18,74.54 93.31,75.78 94.16,76.66 C94.08,76.59 94.02,76.52 93.96,76.45 C93.00,75.29 92.49,75.21 91.93,76.11 C91.37,77.02 90.76,76.90 89.52,75.66 C87.56,73.71 87.45,73.69 84.93,75.04 C83.05,76.04 83.00,75.55 83.08,56.79 C83.12,46.18 83.36,37.98 83.60,38.56 C83.85,39.16 85.97,39.48 88.46,39.29 L 92.88 38.96 L 93.19 43.23 L 93.50 47.49 L 100.24 47.64 C103.99,47.72 106.74,47.39 106.43,46.89 C106.05,46.27 106.51,45.93 107.79,45.86 ZM 116.72 75.75 C116.19,76.44 115.14,77.00 114.38,77.00 C113.29,77.00 113.00,74.70 113.00,66.17 C113.00,60.21 113.25,55.08 113.56,54.78 C113.86,54.47 114.96,54.44 115.98,54.71 C118.91,55.47 120.57,63.86 118.96,69.81 C118.26,72.39 117.25,75.06 116.72,75.75 ZM 66.22 67.34 C66.17,65.45 66.22,62.90 66.36,59.65 C66.45,57.69 66.54,55.85 66.61,54.24 C67.39,55.75 70.09,56.36 74.01,55.78 C76.34,55.44 77.00,55.73 77.00,57.06 C77.00,58.04 75.97,59.04 74.63,59.38 C72.80,59.84 72.12,60.87 71.64,63.88 C70.99,67.94 68.32,70.11 66.85,67.78 C66.56,67.34 66.36,67.19 66.22,67.34 ZM 290.85 54.20 C290.70,53.48 290.42,53.00 290.00,53.00 C289.45,53.00 289.00,54.35 289.00,56.00 C289.00,58.31 288.55,59.00 287.05,59.00 C284.59,59.00 282.55,52.72 284.08,49.86 C284.86,48.39 284.72,48.00 283.41,48.00 L 285.37 48.00 C288.30,48.00 289.00,48.38 289.00,49.94 C289.00,51.01 289.45,52.16 290.00,52.50 C290.42,52.76 290.71,53.39 290.85,54.20 ZM 242.41 45.85 C240.81,43.13 240.50,45.20 242.13,48.24 C243.05,49.96 242.92,50.59 241.44,51.67 C238.39,53.90 238.00,53.26 238.00,46.00 C238.00,40.44 238.31,39.00 239.50,39.00 C240.01,39.00 240.46,38.83 240.73,38.57 C240.97,39.15 241.15,39.88 241.26,40.75 C241.44,42.20 241.90,44.18 242.41,45.85 ZM 210.46 45.42 C210.07,45.72 211.06,46.42 213.48,47.43 C215.51,48.28 217.01,49.46 216.81,50.06 C216.61,50.66 216.12,51.12 215.73,51.08 C215.33,51.03 212.75,51.00 210.00,51.00 C208.13,51.00 206.96,50.99 206.23,50.82 C206.46,50.48 206.48,49.74 206.26,48.89 C205.74,46.91 205.99,46.81 210.10,47.39 C213.64,47.89 214.03,47.81 212.10,46.98 C210.32,46.22 209.83,45.66 210.46,45.42 ZM 191.25 67.30 C189.73,67.00 189.00,66.14 189.00,64.65 C189.00,62.68 189.42,62.49 193.06,62.83 C196.53,63.16 197.07,63.53 196.81,65.35 C196.49,67.56 195.08,68.06 191.25,67.30 ZM 174.87 57.40 C174.92,57.45 174.98,57.49 175.04,57.53 C175.57,57.85 176.00,57.42 176.00,56.56 C176.00,54.80 178.54,54.44 179.54,56.06 C180.58,57.74 179.11,62.00 177.48,62.00 C176.67,62.00 175.99,61.21 175.99,60.25 C175.98,59.06 175.68,59.15 174.89,60.66 C174.97,60.19 174.99,59.67 174.95,59.08 C174.91,58.45 174.88,57.89 174.87,57.40 ZM 241.94 74.96 C241.62,74.52 241.26,74.34 240.95,74.53 C240.41,74.86 240.23,75.56 240.55,76.08 C240.87,76.59 239.97,76.49 238.56,75.85 C237.15,75.20 236.00,74.33 236.00,73.91 C236.00,72.54 239.13,69.96 240.08,70.55 C240.51,70.81 240.86,70.70 240.97,70.31 C240.99,70.43 241.00,70.55 241.00,70.68 C241.00,71.91 241.38,73.49 241.94,74.96 ZM 312.58 58.48 C312.30,59.30 311.88,60.01 311.39,60.47 C311.11,60.32 310.66,60.14 310.04,59.89 C306.87,58.62 306.84,58.59 307.58,56.64 C308.49,54.29 310.90,54.62 312.02,57.25 C312.26,57.84 312.45,58.25 312.58,58.48 ZM 35.67 74.33 C34.36,73.03 35.03,71.23 37.00,70.71 C38.59,70.29 39.00,70.68 39.00,72.59 C39.00,74.86 37.16,75.82 35.67,74.33 ZM 86.00 51.94 C86.00,49.49 85.60,48.13 85.00,48.50 C83.31,49.55 83.88,56.00 85.67,56.00 C85.85,56.00 86.00,54.17 86.00,51.94 ZM 129.00 89.08 C129.00,88.05 129.68,86.95 130.50,86.64 C131.50,86.25 132.00,86.68 132.00,87.92 C132.00,88.95 131.32,90.05 130.50,90.36 C129.50,90.75 129.00,90.32 129.00,89.08 ZM 152.46 73.93 C152.10,73.35 152.04,72.63 152.33,72.33 C153.05,71.62 155.00,72.88 155.00,74.06 C155.00,75.34 153.27,75.25 152.46,73.93 ZM 309.79 53.12 C311.05,52.87 312.19,53.33 312.64,54.50 C312.99,55.43 313.02,56.55 312.81,57.60 C312.79,57.30 312.77,56.93 312.73,56.51 C312.55,54.18 311.31,52.95 309.79,53.12 ZM 110.77 49.95 C110.76,50.12 110.72,50.29 110.65,50.46 C110.20,51.64 109.38,51.94 105.80,51.68 C106.11,51.67 106.51,51.66 106.99,51.64 C109.32,51.55 110.45,51.04 110.77,49.95 ZM 282.40 52.10 L 281.74 48.00 L 283.41 48.00 C282.02,48.00 281.85,48.68 282.40,52.10 ZM 244.84 79.33 C243.94,79.09 242.91,77.78 242.57,76.41 C243.32,77.95 244.21,79.15 244.94,79.35 C245.80,79.58 244.79,79.82 242.69,79.88 C244.79,79.82 245.76,79.57 244.84,79.33 ZM 66.93 49.42 C66.91,49.66 66.86,50.04 66.80,50.49 C66.87,49.20 66.92,48.43 66.93,48.42 C66.97,48.37 67.66,48.33 68.48,48.33 C67.66,48.33 66.97,48.82 66.93,49.42 ZM 177.46 54.00 C176.50,54.01 175.65,54.42 175.09,54.98 C175.41,54.16 176.10,54.00 177.39,54.00 C177.41,54.00 177.44,54.00 177.46,54.00 ZM 242.25 52.61 C243.27,51.83 243.81,51.04 243.87,50.05 C244.05,51.09 243.62,51.58 242.46,52.45 C242.38,52.51 242.30,52.58 242.22,52.63 C242.23,52.63 242.24,52.62 242.25,52.61 ZM 239.45 37.04 C238.67,37.11 237.78,37.53 237.33,38.25 C238.02,37.16 238.78,36.78 239.45,37.04 ZM 205.32 50.28 C205.02,49.84 205.00,49.13 205.00,47.98 C205.00,48.90 205.12,49.73 205.32,50.28 ZM 239.09 69.06 C238.07,69.20 236.84,69.74 235.85,70.63 C236.94,69.65 238.13,69.13 239.09,69.06 ZM 310.62 60.93 C310.48,60.98 310.33,61.00 310.18,61.00 C309.94,61.00 309.68,61.03 309.41,61.09 C309.77,61.00 310.13,60.95 310.45,60.94 C310.51,60.93 310.57,60.93 310.62,60.93 ZM 238.41 53.85 C237.47,53.66 236.79,52.95 236.50,51.75 C236.78,52.93 237.48,53.64 238.41,53.85 ZM 289.96 60.07 C290.54,58.99 290.87,57.51 290.95,56.19 C290.88,57.53 290.55,58.98 289.96,60.07 ZM 67.39 71.82 C67.29,71.71 67.15,71.60 66.98,71.49 C66.94,71.46 66.89,71.42 66.85,71.37 C66.91,71.43 66.98,71.49 67.05,71.53 C67.19,71.62 67.30,71.72 67.39,71.82 ZM 181.00 61.08 C181.00,59.27 180.91,57.87 180.68,56.82 C180.91,57.87 181.00,59.26 181.00,61.08 Z" fill="rgba(0,0,0,1)"/>
<path d="M 172.50 67.00 C171.41,67.47 172.04,67.74 174.60,67.86 L 170.88 68.00 C157.70,68.48 157.29,68.57 158.02,70.53 C158.59,72.08 159.26,73.11 160.56,73.80 C158.93,73.01 158.18,71.80 157.69,69.94 C157.25,68.23 157.75,67.99 161.84,67.93 C165.36,67.88 166.01,67.65 164.50,67.00 C161.56,65.74 156.57,65.83 155.23,67.17 C154.34,68.06 154.59,69.27 156.28,72.29 C158.79,76.77 161.41,78.16 164.87,76.85 C166.40,76.27 168.42,76.38 170.57,77.16 C173.06,78.06 174.52,78.08 176.35,77.25 C178.91,76.09 180.00,76.48 180.00,78.56 C180.00,79.30 177.50,80.19 173.75,80.77 C163.82,82.33 161.61,82.17 155.72,79.47 C151.45,77.52 149.92,76.21 149.09,73.82 C147.74,69.95 147.68,61.60 148.98,57.09 C149.92,53.79 155.34,48.12 157.63,48.04 C158.25,48.02 159.30,47.35 159.96,46.55 C160.49,45.91 160.67,45.58 160.35,45.51 C162.13,45.10 163.97,44.88 165.78,44.88 C165.46,45.01 165.33,45.27 165.33,45.66 C165.33,46.40 165.82,47.07 166.42,47.15 C169.46,47.56 170.60,47.72 171.68,47.85 C172.33,47.93 173.15,48.90 173.50,50.00 C173.89,51.23 175.01,52.00 176.41,52.00 C179.48,52.00 182.17,55.18 182.51,59.21 C182.66,61.02 182.83,62.61 182.89,62.75 C182.95,62.89 183.56,62.96 184.25,62.92 C184.33,62.92 184.40,62.91 184.47,62.90 L 184.49 65.37 C184.33,65.22 184.12,65.07 183.88,64.92 C183.08,64.42 182.36,64.47 182.17,65.03 C181.98,65.56 180.18,66.03 178.17,66.07 C176.15,66.11 173.60,66.53 172.50,67.00 ZM 90.00 83.63 C83.98,82.58 83.48,82.30 83.18,79.75 C82.82,76.59 84.79,76.12 89.05,78.34 C94.02,80.94 106.87,81.43 102.83,78.88 C102.10,78.41 100.09,78.02 98.37,78.02 C94.38,78.00 92.46,75.88 93.93,73.13 C95.28,70.61 95.32,66.00 94.00,66.00 C93.45,66.00 93.00,65.32 93.00,64.50 C93.00,63.67 93.45,63.00 94.00,63.00 C94.55,63.00 95.00,61.90 95.00,60.56 C95.00,59.22 94.55,57.84 94.00,57.50 C92.49,56.57 92.80,54.35 94.68,52.46 C96.08,51.06 97.52,50.89 103.19,51.45 C109.02,52.02 110.11,51.88 110.65,50.46 C110.90,49.81 110.75,49.10 110.38,48.52 C111.39,49.14 112.62,50.01 113.77,50.94 C115.96,52.70 117.53,54.97 118.48,57.81 C117.85,56.14 116.99,54.97 115.98,54.71 C114.96,54.44 113.86,54.47 113.56,54.78 C113.25,55.08 113.00,60.21 113.00,66.17 C113.00,74.70 113.29,77.00 114.38,77.00 C115.14,77.00 116.19,76.44 116.72,75.75 C117.25,75.06 118.26,72.39 118.96,69.81 C119.38,68.26 119.58,66.54 119.59,64.84 C119.62,66.41 119.54,68.10 119.35,69.90 C118.78,75.37 118.49,75.92 115.12,77.77 C108.83,81.22 101.97,82.31 94.31,81.07 C83.85,79.37 83.50,79.37 83.50,81.00 C83.50,82.06 85.40,82.82 90.00,83.63 C98.68,85.13 105.26,85.04 110.77,83.22 C105.27,85.04 98.68,85.13 90.00,83.63 ZM 119.46 89.93 C120.36,91.39 120.76,91.31 124.11,88.92 C126.71,87.07 130.86,81.00 129.53,81.00 C128.70,81.00 128.07,81.25 127.82,81.63 L 127.95 67.93 C128.01,61.22 128.21,55.23 128.44,52.87 C128.87,53.39 130.42,53.45 132.65,52.83 C135.44,52.06 136.47,52.14 137.12,53.16 C137.59,53.90 137.97,60.58 137.96,68.00 C137.96,79.10 137.62,82.24 136.06,85.67 C133.75,90.76 130.06,93.38 126.05,92.79 C124.43,92.56 123.33,92.73 123.61,93.18 C123.89,93.63 123.47,94.00 122.68,94.00 C120.95,94.00 119.26,95.95 119.22,97.65 C119.10,96.59 119.02,95.12 119.03,93.58 C119.04,91.76 119.07,90.58 119.31,89.68 C119.36,89.76 119.41,89.85 119.46,89.93 ZM 60.25 77.28 C62.04,77.50 63.52,77.75 63.54,77.84 C63.56,77.93 63.69,76.99 63.84,75.75 C63.99,74.51 64.25,72.60 64.43,71.50 C64.60,70.40 64.80,64.86 64.87,59.19 C65.00,48.98 65.03,48.86 68.14,46.02 C71.10,43.31 71.43,43.23 73.64,44.69 C74.61,45.32 75.24,45.70 75.58,45.74 C75.65,48.64 74.79,51.93 73.41,53.08 C71.22,54.90 68.69,53.38 69.37,50.66 C69.78,49.01 69.52,48.33 68.48,48.33 C67.66,48.33 66.97,48.37 66.93,48.42 C66.89,48.46 66.64,53.52 66.36,59.65 C66.02,67.27 66.22,71.02 66.98,71.49 C67.80,71.99 67.78,72.56 66.93,73.59 C65.32,75.53 66.55,75.36 68.94,73.32 C70.02,72.40 70.65,71.25 70.35,70.76 C70.05,70.27 70.58,69.01 71.54,67.96 C72.49,66.91 73.32,65.03 73.39,63.78 C73.45,62.52 74.24,61.38 75.20,61.20 C76.63,60.92 76.81,61.47 76.33,64.69 C76.14,65.96 75.88,67.17 75.56,68.32 C75.87,66.58 74.99,66.86 73.28,70.05 C70.37,75.48 67.65,77.67 61.65,79.41 C52.64,82.03 46.16,81.80 39.68,78.63 C35.24,76.46 33.90,75.22 32.99,72.47 C32.37,70.58 32.00,68.09 32.18,66.95 C32.50,64.85 37.43,61.10 38.48,62.14 C39.03,62.69 41.98,72.50 42.21,74.56 C42.37,75.93 49.00,76.39 49.00,75.03 C49.00,74.78 48.88,74.56 48.67,74.38 C51.06,75.13 53.92,75.02 57.16,73.95 C59.33,73.23 61.12,72.03 62.02,70.89 C61.69,71.83 60.88,72.47 59.50,73.00 C55.90,74.37 56.33,76.79 60.25,77.28 ZM 289.96 60.07 C290.60,58.88 290.93,57.28 290.96,55.84 C291.12,56.68 291.27,57.61 291.38,58.58 C291.74,61.68 292.57,65.18 293.21,66.36 C293.86,67.53 294.26,69.77 294.11,71.31 C293.75,75.03 297.36,78.41 300.12,76.94 C302.15,75.85 302.62,73.50 301.00,72.50 C300.45,72.16 300.00,72.36 300.00,72.94 C300.00,73.30 299.74,73.62 299.34,73.82 C299.78,73.46 300.16,72.43 300.51,70.75 C300.88,68.96 301.87,65.05 302.72,62.06 C304.09,57.20 304.39,56.81 305.56,58.41 C306.28,59.39 306.60,60.94 306.28,61.85 C305.81,63.19 305.96,63.27 307.05,62.25 C307.79,61.56 309.20,61.00 310.18,61.00 C312.11,61.00 313.61,57.03 312.64,54.50 C311.90,52.58 309.28,52.57 307.36,54.50 C304.75,57.11 304.17,56.15 305.42,51.25 L 305.45 51.11 C304.75,54.76 306.53,54.36 308.04,50.40 C308.72,48.60 309.70,48.00 311.98,48.00 C314.68,48.00 315.00,48.32 315.00,51.03 C315.00,56.54 306.50,78.39 303.64,80.23 C303.01,80.64 300.43,80.98 297.90,80.98 C292.56,81.00 290.36,79.17 289.39,73.93 C289.04,72.05 288.22,69.60 287.57,68.50 C285.55,65.09 283.15,57.72 282.44,52.75 L 281.99 49.54 L 282.40 52.10 C283.73,60.41 287.60,64.48 289.96,60.07 ZM 105.85 74.90 C107.58,74.30 108.75,73.40 108.44,72.90 C108.13,72.41 108.32,72.00 108.85,72.00 C108.32,72.00 108.14,72.42 108.46,72.93 C108.77,73.44 108.06,74.16 106.88,74.54 C105.20,75.07 105.03,75.41 106.12,76.09 C109.87,78.47 111.13,75.01 110.79,63.25 C110.51,53.70 110.45,53.49 108.00,53.15 C105.66,52.82 105.60,52.91 107.10,54.65 C107.14,54.70 107.19,54.76 107.24,54.83 C106.30,54.35 103.84,53.89 101.41,53.76 L 96.50 53.50 L 95.93 76.00 L 99.32 76.00 C101.18,76.00 104.12,75.51 105.85,74.90 ZM 198.72 74.90 C201.45,78.00 202.83,78.15 208.50,75.91 C209.27,75.61 209.70,75.42 209.77,75.30 C210.99,75.43 212.25,75.47 213.47,75.41 C212.87,75.58 212.34,75.78 212.00,76.00 C210.78,76.79 210.91,76.97 212.69,76.98 C215.47,77.00 216.53,78.66 214.96,80.54 C213.34,82.50 207.58,82.38 202.03,80.28 C197.48,78.56 196.43,77.92 193.01,74.83 C191.36,73.34 191.09,73.33 190.56,74.70 C190.44,75.03 190.45,75.42 190.60,75.86 C190.19,74.93 189.87,73.90 189.60,72.75 C189.06,70.43 189.29,70.00 191.03,70.00 C194.24,70.00 199.00,67.14 198.98,65.22 C198.96,62.15 197.36,60.70 194.57,61.23 C191.92,61.74 189.00,59.18 189.00,56.35 C189.00,55.15 189.90,53.65 191.33,52.13 C190.75,52.82 190.26,53.53 189.87,54.25 C189.17,55.55 189.31,56.00 190.41,56.00 C191.22,56.00 192.16,55.55 192.50,55.00 C192.84,54.45 193.99,54.00 195.06,54.00 C196.31,54.00 197.00,53.31 197.00,52.08 C197.00,50.92 198.17,49.65 199.98,48.85 C204.09,47.03 204.83,44.90 200.97,46.01 C200.82,46.05 200.67,46.10 200.53,46.14 C201.11,45.93 201.68,45.76 202.25,45.62 C204.79,45.01 205.00,45.19 205.00,47.98 C205.00,50.94 205.10,51.00 210.00,51.00 C212.75,51.00 215.33,51.03 215.73,51.08 C216.12,51.12 216.61,50.66 216.81,50.06 C217.01,49.46 215.51,48.28 213.48,47.43 C208.87,45.50 209.45,44.73 214.87,45.59 C215.84,45.75 216.58,45.87 217.15,46.03 C217.02,46.02 216.89,46.01 216.75,46.02 C214.93,46.03 214.79,46.22 216.00,47.00 C217.54,48.00 218.53,48.20 218.87,47.61 C218.99,48.20 219.00,49.00 219.00,50.13 L 219.00 54.00 L 211.70 54.00 C208.29,54.00 205.44,54.30 204.02,54.77 C204.97,54.22 206.29,54.00 208.12,54.00 C210.26,54.00 212.00,53.52 212.00,52.92 C212.00,51.33 202.82,52.06 200.75,53.82 C198.74,55.53 198.39,60.63 200.25,61.26 C200.99,61.51 201.64,60.63 201.84,59.09 C202.02,57.69 202.33,56.64 202.86,55.87 C201.97,58.50 201.74,67.19 202.38,71.12 C202.29,70.83 202.22,70.53 202.15,70.21 L 201.50 67.16 L 198.78 69.51 L 196.05 71.86 ZM 348.85 60.42 C349.04,60.26 348.81,58.96 348.33,57.49 C349.54,60.52 351.35,59.51 350.83,55.87 C350.61,54.30 349.73,53.39 348.25,53.18 C347.01,53.00 346.00,52.46 346.00,51.98 C346.00,50.08 339.27,49.78 336.55,51.56 C334.68,52.78 333.58,52.98 332.84,52.24 C331.37,50.77 332.58,49.18 336.29,47.66 C340.72,45.85 338.33,44.90 333.50,46.55 C333.23,46.65 332.95,46.75 332.67,46.87 C333.47,46.50 334.26,46.20 335.04,45.99 C338.62,45.02 342.39,44.91 345.89,45.51 C345.55,45.66 345.44,45.98 345.63,46.49 C345.95,47.32 346.77,48.00 347.46,48.00 C348.14,48.00 350.48,49.29 352.65,50.86 C355.90,53.21 356.81,54.65 357.82,59.03 C359.20,65.01 358.80,65.82 353.84,67.04 C352.42,67.39 351.71,67.59 351.84,67.68 L 347.25 67.78 C338.03,67.97 334.41,68.20 334.02,69.59 C334.01,69.48 334.00,69.38 334.00,69.28 C334.00,68.43 335.60,67.97 338.75,67.92 L 343.50 67.84 L 340.04 66.33 C337.12,65.06 336.83,64.67 338.24,63.89 C339.16,63.37 341.75,62.80 343.99,62.61 C346.24,62.41 348.40,61.91 348.79,61.49 C349.18,61.07 346.21,60.99 342.20,61.31 C341.48,61.37 340.81,61.41 340.20,61.44 C340.67,61.41 341.17,61.37 341.71,61.33 C345.44,60.99 348.66,60.59 348.85,60.42 ZM 347.87 75.23 C347.30,75.42 347.66,75.78 348.57,76.41 C349.68,77.19 351.92,78.00 353.55,78.22 L 356.50 78.61 L 353.50 80.02 C349.17,82.05 335.61,81.54 331.59,79.19 C329.79,78.14 328.51,76.58 328.53,75.44 C328.54,74.37 327.73,72.89 326.72,72.15 C323.72,69.95 322.83,66.31 324.16,61.65 C324.82,59.37 325.75,56.96 326.25,56.31 C327.66,54.44 329.80,55.87 331.00,59.50 C331.60,61.33 332.81,63.10 333.68,63.43 C335.13,63.99 335.12,64.21 333.64,65.85 C331.41,68.31 331.58,72.17 334.03,74.80 C337.12,78.12 343.47,79.19 341.54,76.07 C341.34,75.75 340.91,75.46 340.40,75.26 C342.00,75.36 344.31,75.32 347.87,75.23 ZM 131.87 90.58 C132.35,90.28 133.03,88.24 133.38,86.03 C133.77,83.62 134.52,82.11 135.26,82.25 C136.19,82.44 136.57,79.10 136.78,69.08 C136.93,61.70 136.71,55.32 136.28,54.91 C135.85,54.49 134.26,54.40 132.75,54.69 L 130.00 55.23 L 130.02 64.87 C130.02,70.50 130.61,76.16 131.43,78.50 C132.63,81.94 132.62,82.61 131.41,83.30 C129.93,84.14 127.00,89.19 127.00,90.89 C127.00,91.86 130.13,91.66 131.87,90.58 ZM 244.32 52.57 C242.47,53.98 239.39,55.39 237.48,55.70 C234.25,56.22 234.00,56.08 234.00,53.63 C234.00,52.18 233.52,51.00 232.94,51.00 C232.36,51.00 232.16,50.55 232.50,50.00 C232.84,49.45 232.61,49.00 231.99,49.00 C231.33,49.00 231.52,48.34 232.43,47.43 C233.29,46.56 234.00,44.35 234.00,42.51 C234.00,37.79 234.90,35.99 237.80,34.88 C240.61,33.82 241.95,34.98 241.99,38.50 C242.00,39.60 242.48,42.19 243.05,44.25 C243.96,47.50 244.49,48.00 247.05,48.00 C248.67,48.00 250.00,48.45 250.00,49.00 C250.00,49.55 249.48,50.00 248.84,50.00 C248.21,50.00 246.17,51.15 244.32,52.57 ZM 267.37 77.93 C263.87,80.67 263.36,80.56 262.62,76.88 C261.76,72.55 261.87,54.74 262.77,53.41 C263.17,52.81 264.54,52.06 265.80,51.74 C269.08,50.91 270.00,54.05 270.00,65.99 C270.00,75.46 269.89,75.94 267.37,77.93 ZM 172.80 59.18 C173.33,55.85 168.93,52.94 164.41,53.13 C166.86,52.86 169.50,53.64 171.43,55.57 C172.80,56.94 173.00,56.95 173.00,55.64 C173.00,53.69 167.80,50.00 165.05,50.00 C161.21,50.00 157.52,52.68 156.15,56.45 C155.12,59.30 155.10,60.41 156.04,61.55 C157.54,63.36 172.55,63.70 171.44,61.90 C171.20,61.51 170.44,61.29 169.16,61.23 C171.97,60.90 172.61,60.40 172.80,59.18 ZM 242.98 74.43 C243.65,76.22 244.65,76.96 246.23,76.88 C247.92,76.80 248.05,76.65 246.75,76.31 C245.13,75.89 244.64,74.93 244.88,72.60 C244.60,75.32 245.39,76.04 248.98,76.61 C249.91,76.76 250.63,76.89 251.17,77.04 C250.50,77.23 250.00,77.99 250.00,78.89 C250.00,83.09 241.29,83.25 236.99,79.14 C235.35,77.57 234.00,75.68 234.00,74.94 C234.00,73.93 233.72,73.88 232.85,74.75 C232.43,75.17 232.26,75.78 232.31,76.48 C231.93,75.21 231.64,73.77 231.43,72.15 L 231.19 70.37 C231.43,70.72 231.95,70.56 233.00,70.00 C234.10,69.41 235.00,68.57 235.00,68.13 C235.00,67.68 236.14,66.80 237.53,66.17 C239.81,65.13 240.15,65.27 241.03,67.57 C241.56,68.98 242.00,70.52 242.00,71.00 C242.00,71.48 242.44,73.02 242.98,74.43 ZM 267.79 76.15 C268.73,75.55 269.00,72.58 268.79,64.92 L 268.50 54.50 L 263.00 53.87 L 263.00 64.23 C263.00,75.76 264.10,78.49 267.79,76.15 ZM 242.46 52.45 C244.24,51.11 244.30,50.67 243.08,47.73 C242.34,45.96 241.52,42.81 241.26,40.75 C240.79,36.99 238.89,35.78 237.33,38.25 C236.33,39.82 235.78,48.76 236.50,51.75 C237.12,54.34 239.59,54.63 242.46,52.45 ZM 181.00 61.08 C181.00,55.63 180.17,54.00 177.39,54.00 C174.95,54.00 174.67,54.58 174.95,59.08 C175.18,62.76 173.30,63.84 165.96,64.25 C161.42,64.51 162.69,64.67 170.25,64.81 L 181.00 65.00 ZM 155.99 76.03 C157.22,75.25 156.91,74.50 154.14,71.64 C151.60,69.02 150.97,67.68 151.49,66.03 C151.90,64.73 152.74,64.07 153.56,64.38 C156.51,65.52 155.79,63.15 152.74,61.66 L 149.50 60.09 L 149.20 65.50 C149.01,68.99 149.46,71.99 150.48,73.96 C152.11,77.12 153.46,77.63 155.99,76.03 ZM 244.94 79.35 C243.35,78.92 241.00,73.74 241.00,70.68 C241.00,68.54 238.19,68.51 235.85,70.63 C234.14,72.18 234.14,72.42 235.74,75.13 C236.67,76.71 238.04,78.00 238.77,78.00 C239.51,78.00 239.84,78.45 239.50,79.00 C239.13,79.61 240.38,79.95 242.69,79.88 C244.79,79.82 245.80,79.58 244.94,79.35 ZM 40.00 75.01 C40.80,73.51 40.68,72.28 39.53,70.06 C38.69,68.43 38.00,66.36 38.00,65.47 C38.00,63.51 35.81,64.00 35.36,66.05 C35.18,66.85 34.75,68.75 34.39,70.29 C33.94,72.24 34.28,73.66 35.53,75.04 C37.77,77.51 38.66,77.51 40.00,75.01 ZM 95.15 38.44 C95.07,37.85 93.05,37.37 90.66,37.36 C85.14,37.33 82.28,36.32 83.72,34.88 C83.92,34.68 84.40,34.35 85.06,33.96 C85.09,34.20 85.22,34.54 85.43,34.89 C86.06,35.91 88.55,35.42 90.57,33.87 C91.16,33.42 92.63,33.24 93.82,33.47 C94.92,33.68 95.57,33.63 95.82,33.23 C95.90,34.36 95.87,35.64 95.73,36.63 C95.49,38.21 95.23,39.02 95.15,38.44 ZM 358.00 63.50 C358.00,62.67 357.44,61.97 356.75,61.92 C356.06,61.88 354.63,61.68 353.57,61.48 C352.50,61.29 351.15,61.75 350.57,62.52 C349.98,63.29 347.25,64.08 344.50,64.28 C341.58,64.49 343.35,64.71 348.75,64.82 C356.39,64.97 358.00,64.74 358.00,63.50 ZM 328.88 68.09 C330.06,67.35 330.06,66.75 328.89,64.11 C327.34,60.62 325.67,60.52 325.17,63.90 C324.54,68.18 326.05,69.89 328.88,68.09 ZM 52.87 78.96 C50.46,77.62 44.69,77.43 44.27,78.68 C43.85,79.96 48.03,80.76 51.87,80.12 C53.59,79.83 53.87,79.51 52.87,78.96 ZM 350.00 79.50 C350.00,77.93 346.54,77.47 343.50,78.64 C342.17,79.15 342.10,79.45 343.17,80.12 C345.45,81.57 350.00,81.15 350.00,79.50 ZM 154.68 56.40 C155.01,55.52 154.68,54.42 153.94,53.97 C152.23,52.91 151.38,53.44 150.71,55.98 C150.32,57.49 150.67,58.00 152.12,58.00 C153.19,58.00 154.34,57.28 154.68,56.40 ZM 212.46 80.07 C212.77,79.56 212.55,78.84 211.96,78.47 C210.44,77.53 205.80,78.86 206.52,80.03 C207.28,81.27 211.70,81.30 212.46,80.07 ZM 309.00 67.58 C309.00,65.98 307.56,64.00 306.39,64.00 C304.96,64.00 304.49,66.15 305.67,67.33 C306.39,68.06 309.00,68.26 309.00,67.58 ZM 292.22 53.87 C292.79,55.93 293.41,58.28 294.03,60.75 C296.25,69.61 297.79,73.85 298.95,73.95 C298.81,73.98 298.66,74.00 298.50,74.00 C297.67,74.00 297.00,73.11 297.00,72.00 C297.00,70.90 296.52,70.00 295.94,70.00 C295.36,70.00 295.10,69.64 295.38,69.20 C295.65,68.76 294.64,63.49 293.13,57.48 L 292.22 53.87 ZM 231.01 69.05 L 230.80 67.43 L 235.75 64.73 C233.37,66.18 231.20,67.96 231.01,69.05 ZM 308.96 78.12 C308.28,79.68 307.73,80.74 307.39,81.12 C305.95,82.71 299.55,85.26 298.00,84.86 C297.76,84.80 296.80,84.60 295.76,84.39 C299.07,84.90 303.36,83.94 306.00,82.08 C306.99,81.38 307.90,80.23 308.96,78.12 ZM 184.47 62.43 C184.40,62.40 184.33,62.37 184.25,62.34 C183.56,62.06 183.00,61.39 183.00,60.86 C183.00,60.32 183.47,60.17 184.04,60.52 C184.19,60.62 184.31,60.63 184.40,60.59 C184.44,61.18 184.46,61.80 184.47,62.43 ZM 313.59 46.19 L 319.92 45.91 L 319.74 46.50 L 313.75 46.20 C313.70,46.20 313.64,46.19 313.59,46.19 ZM 197.51 82.24 C194.37,80.89 192.39,79.24 191.09,76.86 C192.21,78.64 194.76,80.78 197.51,82.24 ZM 47.69 74.00 C47.65,74.00 47.61,74.00 47.57,74.00 C46.12,74.00 44.47,72.25 43.21,69.76 C44.31,71.74 45.83,73.17 47.69,74.00 ZM 216.88 75.02 L 219.00 74.74 L 219.00 78.80 C218.99,75.62 218.80,75.08 216.88,75.02 ZM 334.18 58.87 C334.32,58.37 334.58,57.78 334.95,57.10 C337.73,51.91 346.07,51.84 348.10,56.88 C346.05,52.20 338.45,51.85 335.40,56.51 C334.79,57.44 334.38,58.22 334.18,58.87 ZM 318.96 49.15 L 318.45 50.86 C317.09,55.44 315.53,60.27 314.00,64.71 C314.75,62.44 315.57,59.89 316.48,57.00 L 318.96 49.15 ZM 107.92 45.85 C108.57,45.82 109.43,45.87 110.50,45.98 C111.69,46.10 113.15,46.80 114.60,47.83 C112.55,46.56 110.23,45.84 107.92,45.85 ZM 207.99 75.05 C205.97,74.98 204.61,74.56 203.67,73.58 C204.63,74.21 206.19,74.72 207.99,75.05 ZM 92.51 30.25 L 94.99 29.10 L 95.31 30.40 C94.93,29.60 94.35,29.51 92.51,30.25 ZM 162.94 61.61 C160.38,61.83 158.80,61.76 158.01,61.27 C158.88,61.51 160.73,61.64 162.94,61.61 ZM 353.76 48.32 C356.46,49.93 358.56,52.09 359.63,54.66 C359.86,55.21 360.07,55.92 360.25,56.69 C359.32,53.32 357.33,50.60 354.33,48.68 C354.14,48.56 353.95,48.44 353.76,48.32 ZM 278.54 46.59 C278.50,46.33 278.50,46.17 278.53,46.13 C278.78,45.89 279.75,45.75 281.02,45.70 C279.88,45.88 278.98,46.19 278.54,46.59 ZM 182.46 67.57 C183.39,67.40 184.08,67.16 184.50,66.87 L 184.50 67.50 L 182.46 67.57 ZM 169.89 45.29 C169.92,45.29 169.95,45.30 169.97,45.30 C173.68,46.09 176.64,47.34 178.89,49.11 C176.53,47.42 173.34,46.03 169.89,45.29 ZM 108.00 47.51 C107.96,47.53 107.91,47.55 107.87,47.58 C107.47,47.83 106.86,47.58 106.51,47.02 C106.42,46.88 106.37,46.75 106.35,46.63 C106.58,46.96 107.18,47.31 108.00,47.51 ZM 306.03 48.83 L 306.62 46.50 L 307.50 46.46 C307.23,46.53 307.04,46.61 306.96,46.70 C306.70,46.97 306.35,47.80 306.03,48.83 ZM 151.18 49.78 C148.94,51.70 147.25,54.01 146.78,56.09 C147.31,53.75 148.92,51.57 151.18,49.78 ZM 286.09 71.36 C285.24,68.99 284.31,66.21 283.25,62.93 C282.61,60.94 282.01,59.01 281.46,57.21 C282.12,59.27 282.84,61.52 283.58,63.86 C284.50,66.74 285.33,69.22 286.09,71.36 ZM 323.00 57.32 C323.00,55.49 324.60,53.05 326.88,50.89 C324.63,53.09 323.00,55.61 323.00,57.43 C323.00,58.78 322.55,60.16 322.00,60.50 C322.55,60.16 323.00,58.73 323.00,57.32 ZM 119.62 99.29 C119.52,99.18 119.42,98.89 119.34,98.44 C119.35,98.47 119.36,98.49 119.37,98.52 C119.59,99.10 119.98,99.34 120.88,99.14 C120.21,99.36 119.76,99.42 119.62,99.29 ZM 160.40 54.73 C159.60,55.49 158.83,56.47 158.27,57.46 C158.33,57.32 158.40,57.19 158.48,57.04 C158.96,56.11 159.62,55.34 160.40,54.73 ZM 120.75 87.61 C121.38,87.10 122.25,86.57 123.44,85.85 L 124.45 85.23 C124.23,85.39 123.99,85.54 123.75,85.70 C122.63,86.41 121.57,87.09 120.75,87.61 ZM 218.18 82.80 C217.94,83.08 217.63,83.25 217.25,83.36 C214.19,84.23 209.29,84.54 205.42,84.25 C209.45,84.51 214.31,84.19 217.25,83.36 C217.63,83.25 217.94,83.08 218.18,82.80 ZM 234.36 80.80 C235.32,81.96 236.55,82.96 237.86,83.52 C236.45,82.94 235.30,82.05 234.36,80.80 ZM 109.00 71.97 C109.44,71.77 109.66,70.62 109.49,69.25 C109.30,67.74 109.04,64.13 108.90,61.23 C108.90,61.07 108.89,60.90 108.88,60.74 C108.90,60.99 108.92,61.25 108.93,61.50 C109.06,64.25 109.32,67.74 109.50,69.25 C109.66,70.62 109.44,71.77 109.00,71.97 ZM 61.50 82.90 C64.42,82.10 67.07,80.69 69.27,78.82 C67.11,80.70 64.51,82.07 61.50,82.90 ZM 359.12 75.00 L 356.41 75.00 L 359.13 74.93 L 359.12 75.00 ZM 62.16 68.44 C62.07,68.19 62.35,68.00 62.89,68.00 C63.15,68.00 63.36,67.80 63.51,67.35 C63.39,67.78 63.24,68.00 63.06,68.00 C62.63,68.00 62.29,68.18 62.16,68.44 ZM 139.42 46.00 C138.97,46.06 137.16,46.89 135.18,47.89 C137.14,46.88 138.91,46.06 139.42,46.00 ZM 287.75 46.02 C288.42,46.11 288.98,46.23 289.38,46.35 L 287.75 46.02 ZM 132.62 93.03 C134.57,91.79 136.23,90.62 137.08,89.85 C136.12,90.71 134.50,91.85 132.62,93.03 ZM 139.99 62.85 C139.94,53.31 139.72,46.02 139.46,46.00 L 139.47 46.00 C139.73,46.00 139.95,53.30 139.99,62.85 ZM 335.92 73.15 C335.57,72.77 335.25,72.35 334.97,71.92 C335.24,72.29 335.55,72.70 335.91,73.14 C335.92,73.14 335.92,73.15 335.92,73.15 ZM 128.97 51.49 C128.81,51.64 128.68,51.78 128.58,51.91 C128.59,51.87 128.60,51.84 128.61,51.82 C128.66,51.74 128.78,51.63 128.97,51.49 ZM 251.92 82.96 C252.38,82.36 252.61,81.51 252.71,80.26 C252.71,80.28 252.71,80.31 252.71,80.33 C252.61,81.54 252.38,82.37 251.92,82.96 ZM 252.74 79.92 C252.77,79.40 252.77,78.97 252.74,78.60 C252.78,78.95 252.77,79.38 252.74,79.92 Z" fill="rgba(2,2,2,1)"/>
<path d="M 231.40 55.87 C232.02,52.03 232.00,52.00 228.71,52.00 C224.82,52.00 223.04,50.56 223.72,47.97 C224.06,46.67 225.30,46.02 227.85,45.80 C230.83,45.56 231.46,45.13 231.26,43.50 C231.13,42.40 231.27,39.88 231.57,37.91 C232.07,34.66 232.65,34.10 237.61,32.04 C240.63,30.79 243.40,30.07 243.77,30.43 C244.13,30.80 244.54,33.89 244.66,37.30 C244.79,40.71 244.92,44.06 244.95,44.75 C244.98,45.58 246.69,46.00 250.00,46.00 C255.39,46.00 256.49,47.42 253.25,50.18 C249.52,53.37 238.14,58.94 234.55,59.33 L 230.78 59.75 ZM 338.00 84.31 C333.70,83.59 329.00,81.88 329.00,81.04 C329.00,80.60 328.09,79.99 326.97,79.70 C325.86,79.41 325.03,78.80 325.15,78.34 C325.34,77.54 323.79,73.46 321.89,69.76 C320.69,67.42 320.76,61.27 322.00,60.50 C322.55,60.16 323.00,58.78 323.00,57.43 C323.00,54.05 328.64,48.21 333.50,46.55 C338.33,44.90 340.72,45.85 336.29,47.66 C332.58,49.18 331.37,50.77 332.84,52.24 C333.58,52.98 334.68,52.78 336.55,51.56 C339.27,49.78 346.00,50.08 346.00,51.98 C346.00,52.46 347.01,53.00 348.25,53.18 C349.73,53.39 350.61,54.30 350.83,55.87 C351.37,59.65 349.40,60.59 348.20,57.13 C346.35,51.84 337.77,51.82 334.95,57.10 C332.81,61.09 334.27,61.94 342.20,61.31 C346.21,60.99 349.18,61.07 348.79,61.49 C348.40,61.91 346.24,62.41 343.99,62.61 C341.75,62.80 339.16,63.37 338.24,63.89 C336.83,64.67 337.12,65.06 340.04,66.33 L 343.50 67.84 L 338.75 67.92 C335.60,67.97 334.00,68.43 334.00,69.28 C334.00,71.51 337.04,75.00 339.00,75.00 C340.03,75.00 341.18,75.48 341.54,76.07 C343.47,79.19 337.12,78.12 334.03,74.80 C331.58,72.17 331.41,68.31 333.64,65.85 C335.12,64.21 335.13,63.99 333.68,63.43 C332.81,63.10 331.60,61.33 331.00,59.50 C329.80,55.87 327.66,54.44 326.25,56.31 C325.75,56.96 324.82,59.37 324.16,61.65 C322.83,66.31 323.72,69.95 326.72,72.15 C327.73,72.89 328.54,74.37 328.53,75.44 C328.51,76.58 329.79,78.14 331.59,79.19 C335.61,81.54 349.17,82.05 353.50,80.02 L 356.50 78.61 L 353.55 78.22 C351.92,78.00 349.68,77.19 348.57,76.41 C346.74,75.13 347.14,75.00 352.84,75.00 L 359.12 75.00 L 358.50 82.50 L 352.00 83.64 C345.14,84.85 342.08,84.99 338.00,84.31 ZM 295.33 84.31 C290.83,83.42 288.57,79.48 283.58,63.86 C280.89,55.41 278.50,48.00 278.29,47.39 C277.75,45.87 282.73,44.99 286.94,45.85 L 290.39 46.56 L 293.13 57.48 C294.64,63.49 295.65,68.76 295.38,69.20 C295.10,69.64 295.36,70.00 295.94,70.00 C296.52,70.00 297.00,70.90 297.00,72.00 C297.00,73.11 297.67,74.00 298.50,74.00 C299.33,74.00 300.00,73.52 300.00,72.94 C300.00,72.36 300.45,72.16 301.00,72.50 C302.62,73.50 302.15,75.85 300.12,76.94 C297.36,78.41 293.75,75.03 294.11,71.31 C294.26,69.77 293.86,67.53 293.21,66.36 C292.57,65.18 291.74,61.68 291.38,58.58 C291.02,55.48 290.33,52.70 289.86,52.41 C289.39,52.12 289.00,51.01 289.00,49.94 C289.00,48.38 288.30,48.00 285.39,48.00 L 281.77 48.00 L 282.44 52.75 C283.15,57.72 285.55,65.09 287.57,68.50 C288.22,69.60 289.04,72.05 289.39,73.93 C290.36,79.17 292.56,81.00 297.90,80.98 C300.43,80.98 303.01,80.64 303.64,80.23 C306.50,78.39 315.00,56.54 315.00,51.03 C315.00,48.32 314.68,48.00 311.98,48.00 C309.70,48.00 308.72,48.60 308.04,50.40 C306.50,54.44 304.67,54.78 305.50,50.88 C305.89,49.02 306.55,47.14 306.96,46.70 C307.37,46.26 310.42,46.03 313.75,46.20 L 319.79 46.50 L 316.48 57.00 C310.75,75.16 308.64,80.21 306.00,82.08 C303.25,84.03 298.69,84.98 295.33,84.31 ZM 260.50 78.65 C260.16,75.82 260.02,68.56 260.19,62.52 L 260.50 51.53 L 264.74 49.20 C267.07,47.92 269.43,47.15 269.99,47.49 C270.60,47.87 271.00,53.97 271.00,62.82 C271.00,77.18 270.94,77.58 268.46,80.26 C267.06,81.77 265.60,83.03 265.21,83.08 C264.82,83.12 263.74,83.30 262.81,83.48 C261.46,83.74 261.00,82.77 260.50,78.65 ZM 160.30 83.95 C153.78,82.66 146.32,77.91 147.59,75.85 C147.88,75.38 147.73,75.00 147.26,75.00 C146.16,75.00 145.78,60.52 146.78,56.09 C147.66,52.18 152.85,47.48 157.88,46.03 C160.71,45.22 161.00,45.30 159.96,46.55 C159.30,47.35 158.25,48.02 157.63,48.04 C155.34,48.12 149.92,53.79 148.98,57.09 C147.68,61.60 147.74,69.95 149.09,73.82 C149.92,76.21 151.45,77.52 155.72,79.47 C161.61,82.17 163.82,82.33 173.75,80.77 C177.50,80.19 180.00,79.30 180.00,78.56 C180.00,76.48 178.91,76.09 176.35,77.25 C174.52,78.08 173.06,78.06 170.57,77.16 C168.42,76.38 166.40,76.27 164.87,76.85 C161.41,78.16 158.79,76.77 156.28,72.29 C154.59,69.27 154.34,68.06 155.23,67.17 C156.57,65.83 161.56,65.74 164.50,67.00 C166.01,67.65 165.36,67.88 161.84,67.93 C157.75,67.99 157.25,68.23 157.69,69.94 C158.79,74.13 161.20,75.02 172.10,75.28 L 182.50 75.53 L 182.48 78.99 L 182.47 82.46 L 175.48 83.67 C167.45,85.06 166.04,85.08 160.30,83.95 ZM 40.02 81.92 C34.84,79.57 31.81,77.11 32.58,75.87 C32.88,75.39 32.64,75.00 32.06,75.00 C31.48,75.00 31.06,74.66 31.13,74.25 C31.43,72.58 29.69,67.00 28.88,67.00 C28.39,67.00 28.01,66.44 28.02,65.75 C28.03,64.74 31.99,62.59 40.04,59.21 C40.42,59.05 41.03,61.14 41.39,63.85 C42.07,68.99 45.12,74.00 47.57,74.00 C48.36,74.00 49.00,74.46 49.00,75.03 C49.00,76.39 42.37,75.93 42.21,74.56 C41.98,72.50 39.03,62.69 38.48,62.14 C37.43,61.10 32.50,64.85 32.18,66.95 C32.00,68.09 32.37,70.58 32.99,72.47 C33.90,75.22 35.24,76.46 39.68,78.63 C46.16,81.80 52.64,82.03 61.65,79.41 C67.65,77.67 70.37,75.48 73.28,70.05 C75.83,65.29 76.54,67.00 74.20,72.28 C71.94,77.40 67.23,81.33 61.50,82.90 C54.99,84.67 45.10,84.23 40.02,81.92 ZM 90.00 83.63 C85.40,82.82 83.50,82.06 83.50,81.00 C83.50,79.37 83.85,79.37 94.31,81.07 C101.97,82.31 108.83,81.22 115.12,77.77 C118.49,75.92 118.78,75.37 119.35,69.90 C120.30,60.88 118.48,54.72 113.77,50.94 C111.63,49.21 109.24,47.71 108.47,47.60 C106.44,47.30 105.41,46.02 107.08,45.88 C112.50,45.44 118.21,49.18 120.51,54.68 C124.04,63.13 121.55,77.45 115.96,80.83 C109.42,84.79 101.57,85.64 90.00,83.63 ZM 244.32 52.57 C246.17,51.15 248.21,50.00 248.84,50.00 C249.48,50.00 250.00,49.55 250.00,49.00 C250.00,48.45 248.67,48.00 247.05,48.00 C244.49,48.00 243.96,47.50 243.05,44.25 C242.48,42.19 242.00,39.60 241.99,38.50 C241.95,34.98 240.61,33.82 237.80,34.88 C234.90,35.99 234.00,37.79 234.00,42.51 C234.00,44.35 233.29,46.56 232.43,47.43 C231.52,48.34 231.33,49.00 231.99,49.00 C232.61,49.00 232.84,49.45 232.50,50.00 C232.16,50.55 232.36,51.00 232.94,51.00 C233.52,51.00 234.00,52.18 234.00,53.63 C234.00,56.08 234.25,56.22 237.48,55.70 C239.39,55.39 242.47,53.98 244.32,52.57 ZM 119.37 98.52 C118.67,96.69 120.64,94.00 122.68,94.00 C123.47,94.00 123.89,93.63 123.61,93.18 C123.33,92.73 124.43,92.56 126.05,92.79 C130.06,93.38 133.75,90.76 136.06,85.67 C137.62,82.24 137.96,79.10 137.96,68.00 C137.97,60.58 137.59,53.90 137.12,53.16 C136.47,52.14 135.44,52.06 132.65,52.83 C128.91,53.86 127.07,52.99 129.26,51.23 C130.69,50.09 138.66,46.00 139.46,46.00 C139.76,46.00 140.00,55.27 140.00,66.60 L 140.00 87.20 L 137.08 89.85 C135.47,91.31 130.96,94.20 127.06,96.28 C121.16,99.42 119.86,99.80 119.37,98.52 ZM 267.37 77.93 C269.89,75.94 270.00,75.46 270.00,65.99 C270.00,54.05 269.08,50.91 265.80,51.74 C264.54,52.06 263.17,52.81 262.77,53.41 C261.87,54.74 261.76,72.55 262.62,76.88 C263.36,80.56 263.87,80.67 267.37,77.93 ZM 201.08 83.65 C195.95,82.37 189.67,77.02 190.56,74.70 C191.09,73.33 191.36,73.34 193.01,74.83 C196.43,77.92 197.48,78.56 202.03,80.28 C207.58,82.38 213.34,82.50 214.96,80.54 C216.53,78.66 215.47,77.00 212.69,76.98 C210.91,76.97 210.78,76.79 212.00,76.00 C212.82,75.47 214.74,75.02 216.25,75.02 C218.79,75.00 219.00,75.31 219.00,78.93 C219.00,81.82 218.54,83.00 217.25,83.36 C213.11,84.53 205.17,84.68 201.08,83.65 ZM 60.25 77.28 C56.33,76.79 55.90,74.37 59.50,73.00 C61.75,72.15 62.47,70.97 62.12,68.75 C62.05,68.34 62.47,68.00 63.06,68.00 C63.75,68.00 63.95,64.90 63.64,58.85 C63.37,53.82 63.54,48.70 64.01,47.48 C64.47,46.25 66.93,44.09 69.47,42.67 L 74.08 40.09 L 75.04 42.61 C76.41,46.21 76.28,46.41 73.64,44.69 C71.43,43.23 71.10,43.31 68.14,46.02 C65.03,48.86 65.00,48.98 64.87,59.19 C64.80,64.86 64.60,70.40 64.43,71.50 C64.25,72.60 63.99,74.51 63.84,75.75 C63.69,76.99 63.56,77.93 63.54,77.84 C63.52,77.75 62.04,77.50 60.25,77.28 ZM 353.84 67.04 C358.80,65.82 359.20,65.01 357.82,59.03 C356.81,54.65 355.90,53.21 352.65,50.86 C350.48,49.29 348.14,48.00 347.46,48.00 C346.77,48.00 345.95,47.32 345.63,46.49 C344.81,44.35 349.37,45.50 354.33,48.68 C358.98,51.66 361.21,56.54 360.80,62.84 L 360.50 67.50 L 355.50 67.68 C351.02,67.84 350.84,67.78 353.84,67.04 ZM 156.04 61.55 C155.10,60.41 155.12,59.30 156.15,56.45 C157.52,52.68 161.21,50.00 165.05,50.00 C167.80,50.00 173.00,53.69 173.00,55.64 C173.00,56.95 172.80,56.94 171.43,55.57 C167.55,51.70 160.85,52.46 158.48,57.04 C156.19,61.46 157.25,62.24 164.48,61.47 C168.66,61.02 170.98,61.16 171.44,61.90 C172.55,63.70 157.54,63.36 156.04,61.55 ZM 238.19 83.65 C234.29,82.23 230.94,76.66 232.85,74.75 C233.72,73.88 234.00,73.93 234.00,74.94 C234.00,75.68 235.35,77.57 236.99,79.14 C241.29,83.25 250.00,83.09 250.00,78.89 C250.00,77.85 250.67,77.00 251.49,77.00 C252.55,77.00 252.90,77.92 252.72,80.21 C252.52,82.66 251.87,83.58 249.98,84.11 C246.23,85.15 241.87,84.98 238.19,83.65 ZM 182.89 62.75 C182.83,62.61 182.66,61.02 182.51,59.21 C182.17,55.18 179.48,52.00 176.41,52.00 C175.01,52.00 173.89,51.23 173.50,50.00 C173.15,48.90 172.33,47.93 171.68,47.85 C170.60,47.72 169.46,47.56 166.42,47.15 C165.82,47.07 165.33,46.40 165.33,45.66 C165.33,44.59 166.25,44.51 169.79,45.26 C175.63,46.51 180.75,49.60 182.40,52.87 C184.32,56.69 185.31,61.31 184.04,60.52 C183.47,60.17 183.00,60.32 183.00,60.86 C183.00,61.39 183.56,62.06 184.25,62.34 C185.25,62.74 185.25,62.86 184.25,62.92 C183.56,62.96 182.95,62.89 182.89,62.75 ZM 242.98 74.43 C242.44,73.02 242.00,71.48 242.00,71.00 C242.00,70.52 241.56,68.98 241.03,67.57 C240.15,65.27 239.81,65.13 237.53,66.17 C236.14,66.80 235.00,67.68 235.00,68.13 C235.00,68.57 234.10,69.41 233.00,70.00 C231.33,70.89 231.00,70.76 231.00,69.19 C231.00,67.00 240.67,61.27 242.04,62.64 C242.52,63.12 243.02,65.19 243.16,67.25 C243.30,69.31 243.79,71.00 244.25,71.00 C244.71,71.00 245.01,71.56 244.93,72.25 C244.59,74.84 245.05,75.87 246.75,76.31 C248.05,76.65 247.92,76.80 246.23,76.88 C244.65,76.96 243.65,76.22 242.98,74.43 ZM 198.72 74.90 L 196.05 71.86 L 198.78 69.51 L 201.50 67.16 L 202.15 70.21 C202.89,73.68 204.41,74.93 208.00,75.05 C210.26,75.12 210.31,75.20 208.50,75.91 C202.83,78.15 201.45,78.00 198.72,74.90 ZM 106.12 76.09 C105.03,75.41 105.20,75.07 106.88,74.54 C108.06,74.16 108.77,73.44 108.46,72.93 C108.14,72.42 108.32,72.00 108.85,72.00 C109.39,72.00 109.68,70.76 109.50,69.25 C109.32,67.74 109.06,64.25 108.93,61.50 C108.79,58.69 107.99,55.69 107.10,54.65 C105.60,52.91 105.66,52.82 108.00,53.15 C110.45,53.49 110.51,53.70 110.79,63.25 C111.13,75.01 109.87,78.47 106.12,76.09 ZM 189.87 54.25 C191.79,50.69 196.28,47.35 200.97,46.01 C204.83,44.90 204.09,47.03 199.98,48.85 C198.17,49.65 197.00,50.92 197.00,52.08 C197.00,53.31 196.31,54.00 195.06,54.00 C193.99,54.00 192.84,54.45 192.50,55.00 C192.16,55.55 191.22,56.00 190.41,56.00 C189.31,56.00 189.17,55.55 189.87,54.25 ZM 200.25 61.26 C198.39,60.63 198.74,55.53 200.75,53.82 C202.82,52.06 212.00,51.33 212.00,52.92 C212.00,53.52 210.26,54.00 208.12,54.00 C203.84,54.00 202.35,55.21 201.84,59.09 C201.64,60.63 200.99,61.51 200.25,61.26 ZM 119.46 89.93 C119.10,89.35 118.96,88.77 119.15,88.64 C119.34,88.52 121.41,87.19 123.75,85.70 C126.08,84.20 127.88,82.64 127.75,82.24 C127.52,81.55 128.31,81.00 129.53,81.00 C130.86,81.00 126.71,87.07 124.11,88.92 C120.76,91.31 120.36,91.39 119.46,89.93 ZM 85.43 34.89 C85.08,34.33 84.96,33.78 85.15,33.66 C85.34,33.55 87.60,32.48 90.16,31.28 C94.20,29.40 94.91,29.32 95.41,30.64 C96.42,33.27 96.07,33.90 93.82,33.47 C92.63,33.24 91.16,33.42 90.57,33.87 C88.55,35.42 86.06,35.91 85.43,34.89 ZM 172.50 67.00 C173.60,66.53 176.15,66.11 178.17,66.07 C180.18,66.03 181.98,65.56 182.17,65.03 C182.36,64.47 183.08,64.42 183.88,64.92 C186.71,66.68 183.78,68.00 177.19,67.93 C172.53,67.88 171.11,67.60 172.50,67.00 ZM 216.00 47.00 C214.79,46.22 214.93,46.03 216.75,46.02 C217.99,46.01 219.00,46.45 219.00,47.00 C219.00,48.25 217.94,48.25 216.00,47.00 Z" fill="rgba(5,5,5,1)"/>
<path d="M 28.60 59.16 C28.01,58.20 28.65,53.68 29.74,48.93 C29.29,52.01 29.31,54.67 30.08,55.59 C31.45,57.24 31.53,57.30 35.97,55.76 C34.77,56.35 33.55,57.18 32.83,57.95 C30.80,60.14 29.44,60.52 28.60,59.16 ZM 133.34 44.26 C136.72,41.87 139.63,37.49 139.63,34.16 C139.75,35.06 139.82,36.20 139.88,37.64 C140.00,40.44 139.48,41.06 135.03,43.39 C134.42,43.71 133.86,44.00 133.34,44.26 ZM 41.14 50.78 C40.56,53.55 39.88,54.45 37.91,55.04 C40.02,54.15 40.62,53.26 41.14,50.78 ZM 69.69 34.18 C71.02,35.41 72.00,36.57 72.00,37.12 C72.00,37.26 71.88,37.43 71.67,37.61 C72.20,36.94 71.56,36.00 69.69,34.18 ZM 62.17 29.68 C62.86,29.82 63.48,29.99 63.95,30.16 C64.40,30.33 64.92,30.61 65.49,30.95 C64.44,30.38 63.34,29.96 62.17,29.68 ZM 70.27 38.41 C69.76,38.62 69.22,38.79 68.75,38.87 C69.05,38.79 69.39,38.69 69.75,38.58 C69.93,38.52 70.11,38.46 70.27,38.41 ZM 39.22 32.61 C43.51,29.97 48.79,28.01 51.33,28.57 C48.80,28.02 43.52,29.97 39.22,32.61 ZM 42.88 43.40 C42.50,44.41 42.17,45.77 41.73,47.89 C42.17,45.77 42.50,44.41 42.88,43.40 ZM 66.51 39.28 C66.01,39.44 65.43,39.64 64.85,39.87 C65.48,39.63 66.05,39.43 66.51,39.28 Z" fill="rgba(206,115,65,1)"/>
<path d="M 40.02 53.64 C40.51,52.84 40.57,51.63 40.64,49.33 C40.72,46.68 40.83,43.97 40.89,43.33 C40.95,42.69 42.52,41.23 44.37,40.08 C44.86,39.78 45.44,39.50 46.07,39.26 C45.70,39.53 45.36,39.85 45.00,40.23 C42.92,42.47 42.64,43.21 41.23,50.35 C40.92,51.93 40.62,52.91 40.02,53.64 ZM 52.64 38.03 C55.82,37.89 58.88,38.35 60.35,39.47 C59.28,38.65 56.10,38.05 52.79,38.03 C52.74,38.03 52.69,38.03 52.64,38.03 ZM 30.72 56.32 C31.66,57.26 32.38,57.01 36.50,55.57 C36.85,55.45 37.16,55.34 37.45,55.23 C37.16,55.34 36.84,55.46 36.49,55.58 C32.38,57.01 31.66,57.26 30.72,56.32 Z" fill="rgba(217,119,59,1)"/>
<path d="M 65.83 39.51 C67.64,38.37 68.43,36.14 66.62,34.13 C65.73,33.15 65.00,31.85 65.00,31.25 C65.00,30.87 64.59,30.51 63.87,30.21 C65.79,30.94 67.52,32.10 69.25,33.75 C72.59,36.93 72.66,37.66 69.75,38.58 C68.51,38.97 67.50,39.20 67.50,39.08 C67.50,38.99 66.81,39.17 65.83,39.51 ZM 260.45 44.91 C260.08,44.31 260.28,43.32 260.89,42.71 C261.50,42.10 262.00,40.41 262.00,38.95 C262.00,38.40 262.14,37.82 262.38,37.23 C261.80,39.15 261.81,41.48 262.67,42.33 C264.06,43.72 266.26,42.83 268.14,41.04 C267.78,41.44 267.38,41.84 266.96,42.25 C262.90,46.18 261.56,46.72 260.45,44.91 ZM 127.00 41.17 C127.00,41.12 127.00,41.06 127.00,41.01 C127.01,44.49 127.21,44.52 130.53,44.37 C131.73,44.31 133.06,44.04 134.10,43.68 C132.38,45.07 130.48,45.99 128.75,46.00 C127.32,46.00 127.00,45.10 127.00,41.17 ZM 32.98 56.72 C33.61,56.55 34.43,56.25 35.57,55.84 C37.96,54.97 39.10,53.72 40.02,50.94 C40.33,50.01 40.55,49.05 40.67,48.24 C40.66,48.60 40.65,48.97 40.64,49.33 C40.50,54.03 40.39,54.21 36.50,55.57 C34.87,56.14 33.77,56.52 32.98,56.72 ZM 40.73 46.53 C40.71,46.39 40.67,46.28 40.62,46.20 C40.07,45.31 40.21,44.25 40.94,43.14 C40.91,43.21 40.89,43.27 40.89,43.33 C40.85,43.74 40.79,44.99 40.73,46.53 ZM 264.81 33.91 C267.08,31.77 270.08,30.53 271.14,32.15 C271.77,33.11 271.85,34.36 271.43,35.77 C271.80,34.42 271.78,33.13 271.14,32.15 C270.27,30.82 267.85,31.52 264.81,33.91 ZM 139.42 32.75 C139.91,34.30 139.49,36.26 138.52,38.21 C139.35,36.10 139.79,33.90 139.42,32.75 ZM 60.09 39.28 C60.16,39.32 60.22,39.36 60.29,39.40 C61.39,40.10 62.55,40.34 63.62,40.25 C62.34,40.52 61.42,40.28 60.35,39.47 C60.27,39.40 60.18,39.34 60.09,39.28 ZM 44.41 40.06 C44.43,40.05 44.45,40.03 44.47,40.02 C46.88,38.53 51.11,37.83 54.77,38.03 C51.13,37.87 46.84,38.57 44.41,40.06 ZM 128.40 35.32 C129.68,33.31 131.88,32.09 135.15,31.49 C131.98,32.07 129.72,33.36 128.40,35.32 ZM 62.87 29.87 C61.68,29.54 60.05,29.30 58.17,29.20 C59.90,29.23 61.44,29.44 62.87,29.87 Z" fill="rgba(217,112,51,1)"/>
<path d="M 127.00 40.44 C127.00,35.50 129.75,32.49 135.15,31.49 C138.14,30.94 138.86,31.11 139.38,32.61 C139.33,32.54 139.28,32.46 139.23,32.39 C138.72,31.61 137.25,31.81 134.25,33.10 C130.45,34.73 130.00,35.27 130.00,38.29 C130.00,40.15 130.30,41.97 130.67,42.33 C131.92,43.59 133.20,43.00 136.60,39.60 C137.66,38.54 138.45,37.64 139.00,36.84 C138.27,39.23 136.92,41.82 135.58,42.93 C134.74,43.63 132.46,44.28 130.53,44.37 C127.04,44.53 127.00,44.49 127.00,40.44 ZM 67.33 35.17 C67.01,34.70 66.51,34.27 65.83,33.91 C64.57,33.24 62.99,32.13 62.31,31.45 C61.63,30.77 58.21,29.72 54.71,29.11 C52.65,28.75 51.23,28.52 50.02,28.48 C50.55,28.45 51.03,28.47 51.45,28.55 C53.13,28.85 55.62,29.13 57.00,29.16 C61.59,29.26 65.00,30.15 65.00,31.25 C65.00,31.85 65.73,33.15 66.62,34.13 C66.93,34.47 67.16,34.82 67.33,35.17 ZM 63.68 40.24 C64.07,40.12 64.50,39.93 65.00,39.68 C66.28,39.05 67.12,38.27 67.50,37.46 C67.04,38.92 65.50,40.06 63.68,40.24 ZM 43.26 30.47 C42.95,30.62 42.62,30.78 42.26,30.95 C38.84,32.61 35.10,35.34 33.71,37.20 C35.51,34.80 39.42,32.20 43.26,30.47 ZM 44.47 40.02 C46.38,38.84 49.40,38.16 52.37,38.03 C49.39,38.17 46.37,38.85 44.47,40.02 Z" fill="rgba(226,116,48,1)"/>
<path d="M 60.30 39.46 C56.98,37.29 48.40,37.59 44.47,40.02 C41.03,42.14 39.57,44.49 40.62,46.20 C40.97,46.76 40.70,48.89 40.02,50.94 C39.66,52.04 39.26,52.89 38.77,53.58 C39.18,52.43 39.15,50.53 39.02,46.92 C38.88,42.63 39.15,42.12 43.45,38.60 C47.26,35.47 48.52,34.96 51.01,35.50 C52.66,35.86 54.00,36.57 54.00,37.08 C54.00,37.59 54.92,38.00 56.04,38.00 C57.15,38.00 59.07,38.66 60.30,39.46 ZM 40.30 32.00 C40.96,31.62 41.62,31.26 42.26,30.95 C48.10,28.12 48.61,28.05 54.71,29.11 C58.21,29.72 61.63,30.77 62.31,31.45 C62.99,32.13 64.57,33.24 65.83,33.91 C68.63,35.41 68.31,37.96 65.15,39.61 C68.70,37.75 68.25,34.57 64.32,34.19 C62.58,34.02 60.61,33.24 59.95,32.44 C59.29,31.65 58.14,31.00 57.38,31.00 C56.62,31.00 56.00,30.56 56.00,30.03 C56.00,29.50 55.44,29.26 54.75,29.49 C54.06,29.73 50.98,30.12 47.89,30.36 C44.96,30.59 42.45,31.12 40.30,32.00 ZM 136.92 32.13 C136.68,32.33 136.42,32.58 136.12,32.88 C134.95,34.05 133.10,35.00 132.00,35.00 C131.03,35.00 130.50,35.25 130.23,36.04 C130.63,34.81 131.67,34.21 134.25,33.10 C135.33,32.64 136.21,32.31 136.92,32.13 ZM 29.46 51.84 C29.54,49.79 29.96,47.23 30.59,44.76 C30.40,45.58 30.22,46.44 30.07,47.34 C29.75,49.23 29.55,50.69 29.46,51.84 ZM 32.17 40.01 C32.65,38.89 33.17,37.92 33.71,37.20 C33.80,37.07 33.90,36.95 34.02,36.82 C33.32,37.76 32.70,38.83 32.17,40.01 ZM 139.68 35.58 C140.05,34.60 139.95,33.74 139.47,32.77 C139.98,33.70 140.07,34.57 139.68,35.58 ZM 65.00 39.68 C64.36,40.01 63.83,40.22 63.36,40.33 C63.83,40.22 64.36,40.01 65.00,39.68 Z" fill="rgba(234,112,41,1)"/>
<path d="M 30.85 43.77 C33.21,35.04 38.33,31.11 47.89,30.36 C50.98,30.12 54.06,29.73 54.75,29.49 C55.44,29.26 56.00,29.50 56.00,30.03 C56.00,30.56 56.62,31.00 57.38,31.00 C58.14,31.00 59.29,31.65 59.95,32.44 C60.61,33.24 62.58,34.02 64.32,34.19 C68.31,34.58 68.71,37.84 65.01,39.68 C62.98,40.70 62.12,40.66 60.30,39.46 C59.07,38.66 57.15,38.00 56.04,38.00 C54.92,38.00 54.00,37.59 54.00,37.08 C54.00,36.57 52.66,35.86 51.01,35.50 C48.52,34.96 47.26,35.47 43.45,38.60 C39.15,42.12 38.88,42.63 39.02,46.92 C39.27,54.26 39.16,54.54 35.68,55.80 C35.34,55.92 35.03,56.03 34.74,56.14 C35.12,55.84 35.54,55.46 36.00,55.00 C37.50,53.50 38.00,51.67 38.00,47.67 C38.00,42.82 38.37,41.93 42.05,37.94 C45.67,34.02 45.93,33.42 44.46,32.35 C43.08,31.34 42.34,31.68 39.91,34.45 C38.31,36.27 37.00,38.21 37.00,38.76 C37.00,39.31 35.69,40.30 34.10,40.96 C32.41,41.66 31.31,42.66 30.85,43.77 ZM 130.67 42.33 C130.30,41.97 130.00,40.17 130.00,38.33 C130.00,35.67 130.40,35.00 132.00,35.00 C133.10,35.00 134.95,34.05 136.12,32.88 C137.39,31.61 138.03,31.21 138.56,31.53 C138.26,31.48 137.89,31.67 137.38,32.10 C136.62,32.73 136.00,33.86 136.00,34.62 C136.00,36.18 136.90,36.35 138.78,35.15 C139.48,34.71 139.76,33.67 139.45,32.74 C140.50,34.82 139.78,36.42 136.60,39.60 C133.20,43.00 131.92,43.59 130.67,42.33 ZM 53.41 35.06 C57.78,36.10 57.82,36.10 58.45,35.08 C59.47,33.43 55.93,31.00 52.49,31.00 C46.48,31.00 47.06,33.54 53.41,35.06 ZM 30.08 55.59 C29.19,54.52 29.19,52.55 30.07,47.34 C30.23,46.42 30.41,45.53 30.61,44.69 C30.50,45.84 31.04,47.03 32.30,48.04 C34.39,49.74 34.41,49.89 32.72,51.76 C31.71,52.87 31.22,54.42 31.58,55.36 C31.88,56.13 32.21,56.61 32.63,56.81 C31.34,57.10 31.01,56.71 30.08,55.59 ZM 130.99 38.98 C132.25,41.34 134.33,41.22 134.81,38.75 C134.98,37.85 134.20,36.88 132.98,36.49 C130.18,35.60 129.58,36.35 130.99,38.98 ZM 62.69 37.36 C63.89,38.56 66.00,38.01 66.00,36.50 C66.00,35.67 65.35,35.00 64.56,35.00 C62.89,35.00 61.76,36.43 62.69,37.36 Z" fill="rgba(240,111,34,1)"/>
<path d="M 31.58 55.36 C31.22,54.42 31.71,52.87 32.72,51.76 C34.41,49.89 34.39,49.74 32.30,48.04 C29.45,45.74 30.26,42.55 34.10,40.96 C35.69,40.30 37.00,39.31 37.00,38.76 C37.00,38.21 38.31,36.27 39.91,34.45 C42.34,31.68 43.08,31.34 44.46,32.35 C45.93,33.42 45.67,34.02 42.05,37.94 C38.37,41.93 38.00,42.82 38.00,47.67 C38.00,51.67 37.50,53.50 36.00,55.00 C33.57,57.43 32.41,57.52 31.58,55.36 ZM 262.67 42.33 C261.35,41.02 262.03,36.28 263.75,34.78 C267.28,31.71 270.18,30.67 271.14,32.15 C273.78,36.20 265.95,45.61 262.67,42.33 ZM 130.99 38.98 C129.58,36.35 130.18,35.60 132.98,36.49 C134.20,36.88 134.98,37.85 134.81,38.75 C134.33,41.22 132.25,41.34 130.99,38.98 ZM 62.69 37.36 C61.76,36.43 62.89,35.00 64.56,35.00 C65.35,35.00 66.00,35.67 66.00,36.50 C66.00,38.01 63.89,38.56 62.69,37.36 ZM 53.41 35.06 C47.06,33.54 46.48,31.00 52.49,31.00 C55.93,31.00 59.47,33.43 58.45,35.08 C57.82,36.10 57.78,36.10 53.41,35.06 ZM 136.00 34.62 C136.00,33.86 136.62,32.73 137.38,32.10 C138.46,31.21 138.91,31.33 139.42,32.64 C139.78,33.59 139.50,34.70 138.78,35.15 C136.90,36.35 136.00,36.18 136.00,34.62 Z" fill="rgba(245,110,30,1)"/>
</g>
</svg>